<svg width="21" height="21" viewBox="0 0 21 21" fill="none" xmlns="http://www.w3.org/2000/svg">
<path d="M4.69206 18.9779C4.23372 18.9779 3.84136 18.8147 3.51497 18.4883C3.18859 18.1619 3.02539 17.7696 3.02539 17.3113V5.64458C3.02539 5.18625 3.18859 4.79389 3.51497 4.4675C3.84136 4.14111 4.23372 3.97792 4.69206 3.97792H5.52539V2.31125H7.19206V3.97792H13.8587V2.31125H15.5254V3.97792H16.3587C16.8171 3.97792 17.2094 4.14111 17.5358 4.4675C17.8622 4.79389 18.0254 5.18625 18.0254 5.64458V17.3113C18.0254 17.7696 17.8622 18.1619 17.5358 18.4883C17.2094 18.8147 16.8171 18.9779 16.3587 18.9779H4.69206ZM4.69206 17.3113H16.3587V8.97792H4.69206V17.3113ZM4.69206 7.31125H16.3587V5.64458H4.69206V7.31125ZM10.5254 12.3112C10.2893 12.3112 10.0914 12.2314 9.93164 12.0717C9.77192 11.9119 9.69206 11.714 9.69206 11.4779C9.69206 11.2418 9.77192 11.0439 9.93164 10.8842C10.0914 10.7244 10.2893 10.6446 10.5254 10.6446C10.7615 10.6446 10.9594 10.7244 11.1191 10.8842C11.2789 11.0439 11.3587 11.2418 11.3587 11.4779C11.3587 11.714 11.2789 11.9119 11.1191 12.0717C10.9594 12.2314 10.7615 12.3112 10.5254 12.3112ZM7.19206 12.3112C6.95595 12.3112 6.75803 12.2314 6.59831 12.0717C6.43859 11.9119 6.35872 11.714 6.35872 11.4779C6.35872 11.2418 6.43859 11.0439 6.59831 10.8842C6.75803 10.7244 6.95595 10.6446 7.19206 10.6446C7.42817 10.6446 7.62609 10.7244 7.78581 10.8842C7.94553 11.0439 8.02539 11.2418 8.02539 11.4779C8.02539 11.714 7.94553 11.9119 7.78581 12.0717C7.62609 12.2314 7.42817 12.3112 7.19206 12.3112ZM13.8587 12.3112C13.6226 12.3112 13.4247 12.2314 13.265 12.0717C13.1053 11.9119 13.0254 11.714 13.0254 11.4779C13.0254 11.2418 13.1053 11.0439 13.265 10.8842C13.4247 10.7244 13.6226 10.6446 13.8587 10.6446C14.0948 10.6446 14.2928 10.7244 14.4525 10.8842C14.6122 11.0439 14.6921 11.2418 14.6921 11.4779C14.6921 11.714 14.6122 11.9119 14.4525 12.0717C14.2928 12.2314 14.0948 12.3112 13.8587 12.3112ZM10.5254 15.6446C10.2893 15.6446 10.0914 15.5647 9.93164 15.405C9.77192 15.2453 9.69206 15.0474 9.69206 14.8113C9.69206 14.5751 9.77192 14.3772 9.93164 14.2175C10.0914 14.0578 10.2893 13.9779 10.5254 13.9779C10.7615 13.9779 10.9594 14.0578 11.1191 14.2175C11.2789 14.3772 11.3587 14.5751 11.3587 14.8113C11.3587 15.0474 11.2789 15.2453 11.1191 15.405C10.9594 15.5647 10.7615 15.6446 10.5254 15.6446ZM7.19206 15.6446C6.95595 15.6446 6.75803 15.5647 6.59831 15.405C6.43859 15.2453 6.35872 15.0474 6.35872 14.8113C6.35872 14.5751 6.43859 14.3772 6.59831 14.2175C6.75803 14.0578 6.95595 13.9779 7.19206 13.9779C7.42817 13.9779 7.62609 14.0578 7.78581 14.2175C7.94553 14.3772 8.02539 14.5751 8.02539 14.8113C8.02539 15.0474 7.94553 15.2453 7.78581 15.405C7.62609 15.5647 7.42817 15.6446 7.19206 15.6446ZM13.8587 15.6446C13.6226 15.6446 13.4247 15.5647 13.265 15.405C13.1053 15.2453 13.0254 15.0474 13.0254 14.8113C13.0254 14.5751 13.1053 14.3772 13.265 14.2175C13.4247 14.0578 13.6226 13.9779 13.8587 13.9779C14.0948 13.9779 14.2928 14.0578 14.4525 14.2175C14.6122 14.3772 14.6921 14.5751 14.6921 14.8113C14.6921 15.0474 14.6122 15.2453 14.4525 15.405C14.2928 15.5647 14.0948 15.6446 13.8587 15.6446Z" fill="#0D0D0D"/>
</svg>
