<svg width="21" height="21" viewBox="0 0 21 21" fill="none" xmlns="http://www.w3.org/2000/svg">
<path d="M8.02539 3.27416V1.6075H13.0254V3.27416H8.02539ZM9.69206 12.4408H11.3587V7.44083H9.69206V12.4408ZM10.5254 19.1075C9.49761 19.1075 8.52886 18.9096 7.61914 18.5137C6.70942 18.1179 5.91428 17.5797 5.23372 16.8992C4.55317 16.2186 4.01497 15.4235 3.61914 14.5137C3.22331 13.604 3.02539 12.6353 3.02539 11.6075C3.02539 10.5797 3.22331 9.61097 3.61914 8.70125C4.01497 7.79153 4.55317 6.99639 5.23372 6.31583C5.91428 5.63528 6.70942 5.09708 7.61914 4.70125C8.52886 4.30541 9.49761 4.1075 10.5254 4.1075C11.3865 4.1075 12.2129 4.24639 13.0046 4.52416C13.7962 4.80194 14.5393 5.20472 15.2337 5.7325L16.4004 4.56583L17.5671 5.7325L16.4004 6.89917C16.9282 7.59361 17.3309 8.33667 17.6087 9.12833C17.8865 9.92 18.0254 10.7464 18.0254 11.6075C18.0254 12.6353 17.8275 13.604 17.4316 14.5137C17.0358 15.4235 16.4976 16.2186 15.8171 16.8992C15.1365 17.5797 14.3414 18.1179 13.4316 18.5137C12.5219 18.9096 11.5532 19.1075 10.5254 19.1075ZM10.5254 17.4408C12.1365 17.4408 13.5115 16.8714 14.6504 15.7325C15.7893 14.5936 16.3587 13.2186 16.3587 11.6075C16.3587 9.99639 15.7893 8.62139 14.6504 7.4825C13.5115 6.34361 12.1365 5.77417 10.5254 5.77417C8.91428 5.77417 7.53928 6.34361 6.40039 7.4825C5.2615 8.62139 4.69206 9.99639 4.69206 11.6075C4.69206 13.2186 5.2615 14.5936 6.40039 15.7325C7.53928 16.8714 8.91428 17.4408 10.5254 17.4408Z" fill="#0D0D0D"/>
</svg>
