<svg width="130" height="16" viewBox="0 0 130 16" fill="none" xmlns="http://www.w3.org/2000/svg">
<path d="M4.28 5.04C4.28 4.49333 4.18 4.13333 3.98 3.96C3.78 3.77333 3.46 3.68 3.02 3.68H2.74V6.44H3.08C3.88 6.44 4.28 5.97333 4.28 5.04ZM4.4 10.48C4.4 9.92 4.3 9.52667 4.1 9.3C3.91333 9.07333 3.62667 8.96 3.24 8.96H2.74V12.38H3.22C3.47333 12.38 3.67333 12.3333 3.82 12.24C3.98 12.1333 4.1 11.9933 4.18 11.82C4.27333 11.6467 4.33333 11.4467 4.36 11.22C4.38667 10.9933 4.4 10.7467 4.4 10.48ZM5.36 7.72C5.68 7.82667 5.94 7.98 6.14 8.18C6.35333 8.38 6.52 8.61333 6.64 8.88C6.77333 9.13333 6.86667 9.41333 6.92 9.72C6.97333 10.0267 7 10.34 7 10.66C7 12.1533 6.67333 13.2533 6.02 13.96C5.36667 14.6533 4.39333 15 3.1 15H0.0200001V1.08H3.16C4.4 1.08 5.32667 1.40667 5.94 2.06C6.56667 2.71333 6.88 3.68 6.88 4.96C6.88 5.24 6.84667 5.52 6.78 5.8C6.72667 6.06667 6.64 6.32 6.52 6.56C6.4 6.8 6.24 7.01333 6.04 7.2C5.85333 7.38667 5.62667 7.52667 5.36 7.62V7.72ZM15.9458 1.1V11.6C15.9458 12.8 15.6458 13.6867 15.0458 14.26C14.4458 14.8333 13.5591 15.12 12.3858 15.12C10.0258 15.12 8.84578 13.9467 8.84578 11.6V1.1H11.5658V11.66C11.5658 11.98 11.6458 12.2067 11.8058 12.34C11.9658 12.46 12.1591 12.52 12.3858 12.52C12.6124 12.52 12.7991 12.46 12.9458 12.34C13.1058 12.2067 13.1858 11.98 13.1858 11.66V1.1H15.9458ZM17.852 15V1.08H20.572V12.38H24.232V15H17.852ZM29.9106 12.28H27.8706L27.4506 15H24.5706L27.2106 1.08H30.5306L33.1906 15H30.3306L29.9106 12.28ZM28.5306 7.5L28.2506 9.72H29.5106L29.2506 7.5L28.9506 4.68H28.8306L28.5306 7.5ZM34.435 15V1.08H37.155V15H34.435ZM39.2388 15V1.08H45.6188V3.68H41.9588V6.62H45.1588V9.24H41.9588V12.38H45.6188V15H39.2388ZM52.1098 7.66V1.08H54.7698V15H52.4498L50.8098 10.94L49.8498 8.3H49.7498V15H47.0498V1.08H49.4298L51.0698 5.12L52.0098 7.66H52.1098ZM59.5988 5.38L61.4988 1.08H64.3988L61.4988 6.84L64.6988 15H61.8788L59.9388 9.66L59.4588 10.92V15H56.7388V1.08H59.4588V5.38H59.5988ZM69.8845 4.36C69.8845 4.05333 69.8045 3.83333 69.6445 3.7C69.4979 3.56667 69.3112 3.5 69.0845 3.5C68.8579 3.5 68.6645 3.56667 68.5045 3.7C68.3445 3.83333 68.2645 4.05333 68.2645 4.36V11.72C68.2645 12.04 68.3445 12.2667 68.5045 12.4C68.6645 12.52 68.8579 12.58 69.0845 12.58C69.3112 12.58 69.4979 12.52 69.6445 12.4C69.8045 12.2667 69.8845 12.04 69.8845 11.72V4.36ZM72.6445 11.6C72.6445 12.8 72.3445 13.6867 71.7445 14.26C71.1445 14.8333 70.2579 15.12 69.0845 15.12C66.7245 15.12 65.5445 13.9467 65.5445 11.6V4.46C65.5445 3.26 65.8579 2.38 66.4845 1.82C67.1112 1.24667 67.9779 0.96 69.0845 0.96C70.2979 0.96 71.1912 1.24667 71.7645 1.82C72.3512 2.38 72.6445 3.26 72.6445 4.46V11.6ZM85.7877 10.9C85.7877 11.54 85.7277 12.12 85.6077 12.64C85.501 13.16 85.3077 13.6067 85.0277 13.98C84.761 14.34 84.3943 14.62 83.9277 14.82C83.461 15.02 82.8743 15.12 82.1677 15.12C81.5277 15.12 80.9743 15.0267 80.5077 14.84C80.0543 14.6533 79.681 14.4 79.3877 14.08C79.1077 13.7467 78.901 13.3667 78.7677 12.94C78.6343 12.5 78.5677 12.0333 78.5677 11.54L81.2877 11.02C81.3143 11.5267 81.3877 11.9067 81.5077 12.16C81.641 12.4133 81.881 12.54 82.2277 12.54C82.4277 12.54 82.581 12.4933 82.6877 12.4C82.8077 12.3067 82.8943 12.1867 82.9477 12.04C83.0143 11.8933 83.0543 11.72 83.0677 11.52C83.0943 11.32 83.1077 11.12 83.1077 10.92C83.1077 10.64 83.0877 10.4067 83.0477 10.22C83.0077 10.0333 82.9343 9.87333 82.8277 9.74C82.7343 9.60667 82.601 9.49333 82.4277 9.4C82.2543 9.29333 82.041 9.18667 81.7877 9.08C81.1077 8.8 80.561 8.51333 80.1477 8.22C79.7343 7.91333 79.4143 7.59333 79.1877 7.26C78.9743 6.91333 78.8343 6.55333 78.7677 6.18C78.701 5.79333 78.6677 5.37333 78.6677 4.92C78.6677 4.34667 78.7343 3.82 78.8677 3.34C79.001 2.84667 79.2077 2.42667 79.4877 2.08C79.781 1.73333 80.1543 1.46 80.6077 1.26C81.0743 1.06 81.6343 0.96 82.2877 0.96C82.981 0.96 83.5543 1.07333 84.0077 1.3C84.461 1.51333 84.8143 1.79333 85.0677 2.14C85.3343 2.47333 85.521 2.84667 85.6277 3.26C85.7343 3.67333 85.7877 4.07333 85.7877 4.46L83.1077 5.04C83.1077 4.84 83.0943 4.65333 83.0677 4.48C83.0543 4.30667 83.0143 4.15333 82.9477 4.02C82.881 3.87333 82.7877 3.76 82.6677 3.68C82.561 3.6 82.4077 3.56 82.2077 3.56C82.021 3.56 81.8743 3.60667 81.7677 3.7C81.661 3.78 81.5743 3.88667 81.5077 4.02C81.4543 4.14 81.4143 4.28 81.3877 4.44C81.3743 4.6 81.3677 4.75333 81.3677 4.9C81.3677 5.08667 81.381 5.25333 81.4077 5.4C81.4343 5.54667 81.501 5.68667 81.6077 5.82C81.7143 5.95333 81.8677 6.08667 82.0677 6.22C82.281 6.34 82.5743 6.47333 82.9477 6.62C83.5877 6.87333 84.0943 7.14 84.4677 7.42C84.841 7.7 85.121 8.00667 85.3077 8.34C85.5077 8.67333 85.6343 9.05333 85.6877 9.48C85.7543 9.89333 85.7877 10.3667 85.7877 10.9ZM90.9028 0.96C92.1161 0.96 93.0095 1.26 93.5828 1.86C94.1695 2.44667 94.4628 3.21333 94.4628 4.16C94.4628 4.22667 94.4628 4.29333 94.4628 4.36C94.4628 4.41333 94.4561 4.47333 94.4428 4.54L91.8228 5C91.8095 4.58667 91.7161 4.24667 91.5428 3.98C91.3828 3.7 91.1628 3.56 90.8828 3.56C90.6961 3.56 90.5428 3.6 90.4228 3.68C90.3161 3.74667 90.2295 3.83333 90.1628 3.94C90.0961 4.04667 90.0495 4.16667 90.0228 4.3C89.9961 4.42 89.9828 4.52667 89.9828 4.62V11.72C89.9828 11.9067 90.0295 12.0867 90.1228 12.26C90.2161 12.4333 90.4361 12.52 90.7828 12.52C91.0495 12.52 91.2628 12.4 91.4228 12.16C91.5961 11.92 91.6895 11.56 91.7028 11.08L94.4028 11.44C94.3895 12.5467 94.0828 13.44 93.4828 14.12C92.8828 14.7867 92.0161 15.12 90.8828 15.12C89.6295 15.12 88.7161 14.8267 88.1428 14.24C87.5695 13.6533 87.2828 12.7733 87.2828 11.6V4.62C87.2828 3.51333 87.5761 2.62667 88.1628 1.96C88.7628 1.29333 89.6761 0.96 90.9028 0.96ZM100.398 15V9.24H98.658V15H95.938V1.08H98.658V6.6H100.398V1.08H103.098V15H100.398ZM109.338 4.36C109.338 4.05333 109.258 3.83333 109.098 3.7C108.951 3.56667 108.764 3.5 108.538 3.5C108.311 3.5 108.118 3.56667 107.958 3.7C107.798 3.83333 107.718 4.05333 107.718 4.36V11.72C107.718 12.04 107.798 12.2667 107.958 12.4C108.118 12.52 108.311 12.58 108.538 12.58C108.764 12.58 108.951 12.52 109.098 12.4C109.258 12.2667 109.338 12.04 109.338 11.72V4.36ZM112.098 11.6C112.098 12.8 111.798 13.6867 111.198 14.26C110.598 14.8333 109.711 15.12 108.538 15.12C106.178 15.12 104.998 13.9467 104.998 11.6V4.46C104.998 3.26 105.311 2.38 105.938 1.82C106.564 1.24667 107.431 0.96 108.538 0.96C109.751 0.96 110.644 1.24667 111.218 1.82C111.804 2.38 112.098 3.26 112.098 4.46V11.6ZM118.244 4.36C118.244 4.05333 118.164 3.83333 118.004 3.7C117.857 3.56667 117.671 3.5 117.444 3.5C117.217 3.5 117.024 3.56667 116.864 3.7C116.704 3.83333 116.624 4.05333 116.624 4.36V11.72C116.624 12.04 116.704 12.2667 116.864 12.4C117.024 12.52 117.217 12.58 117.444 12.58C117.671 12.58 117.857 12.52 118.004 12.4C118.164 12.2667 118.244 12.04 118.244 11.72V4.36ZM121.004 11.6C121.004 12.8 120.704 13.6867 120.104 14.26C119.504 14.8333 118.617 15.12 117.444 15.12C115.084 15.12 113.904 13.9467 113.904 11.6V4.46C113.904 3.26 114.217 2.38 114.844 1.82C115.471 1.24667 116.337 0.96 117.444 0.96C118.657 0.96 119.551 1.24667 120.124 1.82C120.711 2.38 121.004 3.26 121.004 4.46V11.6ZM122.93 15V1.08H125.65V12.38H129.31V15H122.93Z" fill="#333333"/>
</svg>
